<?xml version="1.0" encoding="utf-8" ?>
<svg baseProfile="full" height="300mm" version="1.1" viewBox="0,0,200,300" width="200mm" xmlns="http://www.w3.org/2000/svg" xmlns:ev="http://www.w3.org/2001/xml-events" xmlns:xlink="http://www.w3.org/1999/xlink"><defs /><rect fill="#222222" height="300" width="200" x="0" y="0" /><text fill="#FFFFFF" style="font-size:12px; font-family:Arial; font-weight:bold;" x="10" y="20">Over 5km Runs</text><text fill="#FFFFFF" style="font-size:4px; font-family:Arial" x="10" y="280">ATHLETE</text><text fill="#FFFFFF" style="font-size:9px; font-family:Arial" x="10" y="290">Aaron Chi</text><text fill="#FFFFFF" style="font-size:4px; font-family:Arial" x="120" y="280">STATISTICS</text><text fill="#FFFFFF" style="font-size:3px; font-family:Arial" x="120" y="285">Number: 7</text><text fill="#FFFFFF" style="font-size:3px; font-family:Arial" x="120" y="290">Weekly: 1.8</text><text fill="#FFFFFF" style="font-size:3px; font-family:Arial" x="141" y="285">Total: 89.0 km</text><text fill="#FFFFFF" style="font-size:3px; font-family:Arial" x="141" y="290">Avg: 12.7 km</text><text fill="#FFFFFF" style="font-size:3px; font-family:Arial" x="167" y="285">Min: 5.1 km</text><text fill="#FFFFFF" style="font-size:3px; font-family:Arial" x="167" y="290">Max: 37.8 km</text><polyline fill="none" points="33.6501628664555,46.74272790996474 27.22996742662508,50.75413516903063 24.661889250855893,51.41240947791084 23.72964169376064,51.24784110969631 22.69185667752754,51.474122580038966 18.540716612478718,50.548423990258016 14.88208469050005,49.108439642659505 14.618241042364389,48.69701358373277 15.19869706837926,47.19530107761966 14.987622149754316,46.26958210793964 14.213680781773292,45.11757012095768 13.0,44.376987380499486 14.055374592775479,44.9118529761472 14.899674267042428,46.0844377848116 15.19869706837926,47.215872560220305 14.618241042364389,49.108439642659505 18.9452768729534,50.69242183821916 23.184364820830524,51.51526463725895 25.17198697058484,51.41240947791084 27.001302931574173,50.95984613003384 28.267752442974597,50.280999132359284 29.041693811072037,49.087868360365974 67.0,75.62301261951507 29.393485342036,48.22387253926718 30.079478827305138,47.75073034300294 32.84104234527331,47.318729940467165 33.82605863199569,46.57815558774746" stroke="#4dd2ff" stroke-linecap="round" stroke-linejoin="round" stroke-width="0.5"><title>2019-10-29 7.9km</title></polyline><polyline fill="none" points="185.0734749926487,55.63387027650606 169.16017619729973,61.35339803274837 168.70168979745358,59.45435326792358 164.78545179858338,58.00213103767601 159.58927260001656,33.0 161.5760469994275,52.52828051970573 160.71638499980327,52.148457053815946 163.39088899898343,53.01981575516402 164.46069059858564,53.980540410251706 165.22483459848445,56.19242473720806 164.68993379862513,57.175476998250815 164.68993379862513,58.00213103767601 166.10360019817017,58.42662779985403 134.9265250072349,87.0 167.78471699764486,58.918149300225195 169.37031579727773,59.58840404705552 173.19103579618968,60.41504863719456 176.05657579528634,60.370365228591254 179.6480525942752,58.94049115938833 181.06171899382025,56.572240926281665 183.7935337930685,56.08071396332525" stroke="#4dd2ff" stroke-linecap="round" stroke-linejoin="round" stroke-width="0.5"><title>2019-10-28 9.2km</title></polyline><polyline fill="none" points="67.0,135.4543211436394 33.94874371867627,107.14802804800274 33.04422110551968,106.1113238936523 27.18291457288433,110.34273560774454 27.526633165893145,108.88290868702461 26.007035175920464,109.85612781874079 23.45628140703775,110.46967657530331 22.407035175943747,109.91959846713871 17.99296482419595,109.34836190634815 16.81708542711567,108.29051211297337 13.379899497609586,108.18472682574065 13.108542713569477,107.67695666763757 13.723618090501986,106.34405386570143 13.144723618170246,104.54567885636061 13.723618090501986,106.17479573101446 13.0,107.76158511689573 13.434170854394324,108.16356976154202 17.468341708532535,109.7291864616127 21.35778894473333,110.59661746224447 22.533668341697194,110.34273560774454 25.102512562763877,111.04090993166028 31.090452261269093,107.16918521968182" stroke="#4dd2ff" stroke-linecap="round" stroke-linejoin="round" stroke-width="0.5"><title>2019-10-25 5.1km</title></polyline><polyline fill="none" points="163.44911652995506,130.62754338615196 161.7271056183963,130.78246133685025 160.65721718221903,132.14096346607403 160.44323949492536,132.18862990979687 183.08411668706685,146.90467963057017 158.4257355867885,132.74870911178004 148.45029959618114,123.90628242131788 164.08086017792812,117.19653830960306 136.91588331293315,147.0 150.70216001902008,128.6731755466899 136.91588331293315,147.0 149.58132451440906,127.52913960524893 149.61189275543438,126.76644251865218 148.42992076883093,126.3135886786622 147.51287353783846,121.5227601588922 148.2465113226208,121.66577291794238 149.10242207156261,119.75892119034688 148.64389845606638,121.08180300798995 136.91588331293315,147.0 136.92607272655005,93.09536603042943 164.600520275475,119.42521881668654 164.6208991028834,119.72316741188843 166.77086538891308,116.62446346800425 183.08411668706685,93.0 167.7490491019562,119.19877735683986 167.23957841808442,120.53358360069979 168.39098216366256,123.47725213877857 167.6267761377967,129.3524413863488" stroke="#ff2800" stroke-linecap="round" stroke-linejoin="round" stroke-width="0.5"><title>2019-10-12 37.8km</title></polyline><polyline fill="none" points="43.44911652995506,190.62754338615196 41.72710561839631,190.78246133685025 40.71835366426967,192.0694637626657 40.65721718221903,192.14096346607403 40.54513363173464,192.20054651754617 40.443239494925365,192.18862990979687 63.08411668706685,206.90467963057017 38.425735586788505,192.74870911178004 28.45029959618114,183.90628242131788 44.080860177928116,177.19653830960306 16.915883312933147,207.0 30.702160019020084,188.6731755466899 16.915883312933147,207.0 29.58132451440906,187.52913960524893 29.611892755434383,186.76644251865218 28.429920768830925,186.3135886786622 27.51287353783846,181.5227601588922 28.24651132262079,181.66577291794238 29.102422071562614,179.75892119034688 28.572572560282424,181.2248163272743 28.603140801365953,181.16522746633564 28.64389845606638,181.08180300798995 16.915883312933147,207.0 16.926072726550046,153.09536603042943 43.87707190436777,178.76972913090867 44.60052027547499,179.42521881668654 44.62089910288341,179.72316741188843 46.70972890686244,176.71980947687553 46.77086538891308,176.62446346800425 63.08411668706685,153.0 47.74904910195619,179.19877735683986 47.23957841808442,180.53358360069979 47.259957245434634,180.59317279607058 47.27014665910974,180.64084412962984 48.39098216366256,183.47725213877857 47.626776137796696,189.3524413863488" stroke="#4dd2ff" stroke-linecap="round" stroke-linejoin="round" stroke-width="0.5"><title>2019-10-12 6.0km</title></polyline><polyline fill="none" points="171.33971857314464,178.80052798808902 170.04770587710664,182.36273873678874 168.61726324947085,183.8469785193156 167.55596710625105,184.3327278434299 164.74122516124044,184.49464407900814 163.37999749940354,185.22326586619602 161.51119342132006,184.65656021176255 160.21918072528206,182.6326011583733 158.37344830250368,181.36424529191572 155.92785284202546,178.6386081345554 154.19747869553976,175.45416343898978 153.71297393459827,173.16025912738405 153.92061883211136,168.73431480160798 154.33590862725396,167.1150476691255 155.14341656223405,165.927578564937 157.79665692022536,164.17335271617048 159.91924920654856,163.47165899488027 160.31146734638605,162.39212641934864 148.66028142697178,207.0 160.31146734638605,161.44753166366718 160.14996575936675,160.42196767791756 162.22641473519616,156.94041703664698 162.34177301148884,155.3480640653288 161.51119342132006,153.5667760661745 161.67269500833936,153.0 161.21126190247014,153.05397872722824 161.58040838723537,153.62075467329123" stroke="#4dd2ff" stroke-linecap="round" stroke-linejoin="round" stroke-width="0.5"><title>2019-10-08 6.1km</title></polyline><polyline fill="none" points="37.729366592655424,243.93932524661068 43.262036726111546,235.93378033746558 43.51788274379214,233.18412860966055 34.49931061879033,213.0 20.699616037483793,249.5878792257281 37.92125110595953,240.85311844253738 34.49931061879033,213.0 37.45753019879339,249.38214036349382 39.20048119459534,247.49307233537547 34.49931061879033,213.0 34.259454977174755,267.0 54.1514828557265,245.11768088991812 59.300383962574415,240.89052733275457" stroke="#4dd2ff" stroke-linecap="round" stroke-linejoin="round" stroke-width="0.5"><title>2019-08-28 17.0km</title></polyline></svg>