<?xml version="1.0" encoding="utf-8" ?>
<svg baseProfile="full" height="200mm" version="1.1" viewBox="0,0,200,200" width="200mm" xmlns="http://www.w3.org/2000/svg" xmlns:ev="http://www.w3.org/2001/xml-events" xmlns:xlink="http://www.w3.org/1999/xlink"><defs /><rect fill="#1a1a1a" height="200" width="200" x="0" y="0" /><text alignment-baseline="middle" fill="#e1ed5e" style="dominant-baseline: central; font-size:9.0px; font-family:Arial;" text-anchor="middle" x="100.0" y="100.0">2020</text><line stroke="#e1ed5e" stroke-width="0.3" x1="100.0" x2="100.0" y1="15.0" y2="10.0" /><path d="M 100.0 14.0 a86.0,86.0 0 0,1 42.35913384403234,11.155469271406648" fill="none" id="id25" stroke="none" /><text fill="#e1ed5e" style="font-size:6.75px; font-family:Arial;" text-anchor="middle"><textPath startOffset="22.145653131862478" xlink:href="#id25">January</textPath></text><line stroke="#e1ed5e" stroke-width="0.3" x1="143.13028292997686" x2="145.6673583964461" y1="26.7553504044142" y2="22.446841604673864" /><path d="M 143.63769802327073 25.89364864446614 a86.0,86.0 0 0,1 29.32050498858742,28.57503671076993" fill="none" id="id26" stroke="none" /><text fill="#e1ed5e" style="font-size:6.75px; font-family:Arial;" text-anchor="middle"><textPath startOffset="20.669276256404974" xlink:href="#id26">February</textPath></text><line stroke="#e1ed5e" stroke-width="0.3" x1="172.87174338648825" x2="177.1583165268699" y1="56.24261187166439" y2="53.66864786411523" /><path d="M 173.72905801456457 55.72781907015455 a86.0,86.0 0 0,1 12.242430191666344,42.057860355516425" fill="none" id="id27" stroke="none" /><text fill="#e1ed5e" style="font-size:6.75px; font-family:Arial;" text-anchor="middle"><textPath startOffset="22.145653131862474" xlink:href="#id27">March</textPath></text><line stroke="#e1ed5e" stroke-width="0.3" x1="184.99686870605535" x2="189.99668451229388" y1="99.2704041080226" y2="99.22748670261217" /><path d="M 185.99683186730306 99.26182062694052 a86.0,86.0 0 0,1 -10.086455211305974,41.156179273409016" fill="none" id="id28" stroke="none" /><text fill="#e1ed5e" style="font-size:6.75px; font-family:Arial;" text-anchor="middle"><textPath startOffset="21.40746469413373" xlink:href="#id28">April</textPath></text><line stroke="#e1ed5e" stroke-width="0.3" x1="174.33088141563837" x2="178.70328620479359" y1="141.23008692659167" y2="143.65538615756765" /><path d="M 175.20536237346943 141.71514677278685 a86.0,86.0 0 0,1 -30.301960400862466,31.631185727798858" fill="none" id="id29" stroke="none" /><text fill="#e1ed5e" style="font-size:6.75px; font-family:Arial;" text-anchor="middle"><textPath startOffset="22.145653131862474" xlink:href="#id29">May</textPath></text><line stroke="#e1ed5e" stroke-width="0.3" x1="143.1302829299769" x2="145.66735839644613" y1="173.24464959558577" y2="177.55315839532614" /><path d="M 143.63769802327073 174.10635135553383 a86.0,86.0 0 0,1 -40.68552437913181,11.842963189579606" fill="none" id="id30" stroke="none" /><text fill="#e1ed5e" style="font-size:6.75px; font-family:Arial;" text-anchor="middle"><textPath startOffset="21.407464694133747" xlink:href="#id30">June</textPath></text><line stroke="#e1ed5e" stroke-width="0.3" x1="101.45913802915013" x2="101.54496967792366" y1="184.9874750549273" y2="189.98673829345242" /><path d="M 101.47630435890484 185.9873277026323 a86.0,86.0 0 0,1 -42.54439059252881,-10.42667462771756" fill="none" id="id31" stroke="none" /><text fill="#e1ed5e" style="font-size:6.75px; font-family:Arial;" text-anchor="middle"><textPath startOffset="22.145653131862474" xlink:href="#id31">July</textPath></text><line stroke="#e1ed5e" stroke-width="0.3" x1="58.13341422392154" x2="55.67067388415222" y1="173.97424548756322" y2="178.32567169271397" /><path d="M 57.64086615596768 174.84453072859336 a86.0,86.0 0 0,1 -31.369924170532247,-30.572349798747897" fill="none" id="id32" stroke="none" /><text fill="#e1ed5e" style="font-size:6.75px; font-family:Arial;" text-anchor="middle"><textPath startOffset="22.145653131862474" xlink:href="#id32">August</textPath></text><line stroke="#e1ed5e" stroke-width="0.3" x1="26.387840678322732" x2="22.057713659400548" y1="142.50000000000003" y2="145.00000000000006" /><path d="M 25.521815274538298 143.00000000000003 a86.0,86.0 0 0,1 -11.493303480769221,-40.785679425670985" fill="none" id="id33" stroke="none" /><text fill="#e1ed5e" style="font-size:6.75px; font-family:Arial;" text-anchor="middle"><textPath startOffset="21.40746469413373" xlink:href="#id33">September</textPath></text><line stroke="#e1ed5e" stroke-width="0.3" x1="15.003131293944662" x2="10.003315487706104" y1="100.72959589197737" y2="100.7725132973878" /><path d="M 14.003168132696942 100.73817937305945 a86.0,86.0 0 0,1 10.791469493833604,-42.45332614584628" fill="none" id="id34" stroke="none" /><text fill="#e1ed5e" style="font-size:6.75px; font-family:Arial;" text-anchor="middle"><textPath startOffset="22.145653131862435" xlink:href="#id34">October</textPath></text><path d="M 79.06263194458094 98.37931529534042 l -60.87403908316464 -4.712035619367161 a82.05613739810963,82.05613739810963 0 0,0 0.12076466392341936,-1.403468451764298 l 60.784180796543474 5.7563251185071405" fill="#49f0ff" stroke="none" /><path d="M 79.0935383218832 98.0201363427161 l -62.7193850343504 -5.9395909718517155 a84.0,84.0 0 0,0 0.14827043007334506,-1.4343819108683489 l 62.608182211795395 7.015377405002977" fill="#4dd2ff" stroke="none" /><path d="M 79.13060592940154 97.66154086499901 l -46.853227191476435 -5.250001833284804 a68.14644649923895,68.14644649923895 0 0,0 0.14024510697686843,-1.1614306712988753 l 46.75619999823989 6.053526181507115" fill="#4aff2c" stroke="none" /><path d="M 79.17382384314186 97.30363454192245 l -47.76479406113489 -6.1841088757054745 a69.16345870355664,69.16345870355664 0 0,0 0.16255218766799778,-1.1761466546839008 l 47.65159735691169 7.003143838589442" fill="#3aff2e" stroke="none" /><path d="M 79.22317932658666 96.9465228501225 l -32.02312887081104 -4.706297167002474 a53.36711318144866,53.36711318144866 0 0,0 0.1409870384854746,-0.9052379243539955 l 31.937620340187305 5.25532327328792" fill="#ff930d" stroke="none" /><path d="M 79.2786578344484 96.59031103205396 l -46.00527207838458 -7.570150013438962 a67.62394481628685,67.62394481628685 0 0,0 0.19831585635267146,-1.1438331590542123 l 45.86854140453967 8.358776205413767" fill="#53ff2b" stroke="none" /><path d="M 79.407916724674 95.88100663000787 l -45.379774581269444 -9.077225850963694 a67.27872049005063,67.27872049005063 0 0,0 0.23625175532113865,-1.1305501733098156 l 45.21726511512394 9.854892475558918" fill="#59ff2a" stroke="none" /><path d="M 79.48165901384962 95.52812308129327 l -44.579118228418544 -9.715811331750624 a66.62559338636038,66.62559338636038 0 0,0 0.25314279497653547,-1.1153938626468856 l 44.40576457188435 10.479639528336516" fill="#64ff29" stroke="none" /><path d="M 79.56144815229197 95.17655741523228 l -40.037835582298136 -9.448820180048191 a62.1376771452889,62.1376771452889 0 0,0 0.2539137034461394,-1.0360545583240093 l 39.8697343523357 10.134730562980318" fill="#b6ff1f" stroke="none" /><path d="M 79.64726062577567 94.8264132398404 l -44.23740994593475 -11.244976619210647 a66.6442541607515,66.6442541607515 0 0,0 0.29136397980382955,-1.1063564891415782 l 44.037856485326195 12.002713612725008" fill="#64ff29" stroke="none" /><path d="M 79.73907114497095 94.47779374421319 l -43.99284641124064 -11.990445916882082 a66.59760222477365,66.59760222477365 0 0,0 0.31009590332169223,-1.1004209647169294 l 43.78053201584437 12.743874805502026" fill="#65ff29" stroke="none" /><path d="M 79.83685265289637 94.1308016681162 l -51.71121816760943 -15.05238196122242 a74.857444119496,74.857444119496 0 0,0 0.3697375990093703,-1.230736216465271 l 51.44520424859643 15.937855781278415" fill="#3aff92" stroke="none" /><path d="M 79.94057633289273 93.78553927170692 l -38.8749236805742 -12.043550728950612 a61.69774938901751,61.69774938901751 0 0,0 0.3221071566746901,-1.0089960805588871 l 38.66245180812225 12.70911584320089" fill="#bfff1e" stroke="none" /><path d="M 80.05021161711548 93.44210830539832 l -48.354988473111256 -15.895245163223443 a71.90052778737859,71.90052778737859 0 0,0 0.3955028169563569,-1.1692338020863715 l 48.07500023458253 16.722980639783977" fill="#34ff5a" stroke="none" /><path d="M 80.16572619554312 93.10060997987247 l -46.50462160776613 -16.17672143551485 a70.23785278912713,70.23785278912713 0 0,0 0.40590732718890554,-1.1353950362272123 l 46.22007411053329 16.972651428122983" fill="#30ff38" stroke="none" /><path d="M 80.28708602549916 92.7611449362534 l -41.69738842435287 -15.31185859843326 a65.41987410101217,65.41987410101217 0 0,0 0.396161935922448,-1.0508666019036643 l 41.42839580461599 16.02539348053107" fill="#7aff26" stroke="none" /><path d="M 80.41425534168474 92.42381321644754 l -41.05834207773508 -15.882248749314059 a65.02309938552031,65.02309938552031 0 0,0 0.4116312852438093,-1.0375797362718078 l 40.77965211752513 16.584729502799448" fill="#81ff25" stroke="none" /><path d="M 80.5471966667186 92.08871423366112 l -35.11281598009376 -14.280076579200848 a58.90554620579643,58.90554620579643 0 0,0 0.38898461296220294,-0.9334214662330743 l 34.86250552259508 14.880730554875186" fill="#f6ff19" stroke="none" /><path d="M 81.63589988554816 89.8137432299009 l -39.310449219339795 -21.80484352625681 a65.95289333325316,65.95289333325316 0 0,0 0.5576682541090643,-0.9853463702706683 l 38.930347600209366 22.476446666626583" fill="#70ff27" stroke="none" /><line stroke="#e1ed5e" stroke-width="0.3" x1="26.387840678322718" x2="22.05771365940052" y1="57.49999999999999" y2="54.99999999999999" /><path d="M 25.521815274538284 56.99999999999999 a86.0,86.0 0 0,1 29.574782752854787,-30.34633250058573" fill="none" id="id35" stroke="none" /><text fill="#e1ed5e" style="font-size:6.75px; font-family:Arial;" text-anchor="middle"><textPath startOffset="21.40746469413373" xlink:href="#id35">November</textPath></text><path d="M 81.81346652052679 89.5 l -38.56675214902174 -22.266524735007284 a65.53304947001456,65.53304947001456 0 0,0 0.5708436954014949,-0.9694173931437867 l 38.17883474349046 22.925293296444647" fill="#78ff26" stroke="none" /><path d="M 81.99639281039701 89.18935116829357 l -42.13420325334029 -25.300378439641403 a70.14672148763194,70.14672148763194 0 0,0 0.6287552463046467,-1.027024442047419 l 41.69368004258025 26.019939997813363" fill="#30ff37" stroke="none" /><path d="M 82.18462484594161 88.88188828441811 l -48.67281862905401 -30.375438650631082 a78.37343066712187,78.37343066712187 0 0,0 0.7220891562225242,-1.1352440894027467 l 48.14421178120559 31.2064964147125" fill="#41ffd1" stroke="none" /><path d="M 82.37810715431573 88.57770195909679 l -48.996762816770065 -31.759109695735997 a79.38941526671263,79.38941526671263 0 0,0 0.751082696279494,-1.1372349313868237 l 48.444355681569846 32.59552450546188" fill="#43ffe2" stroke="none" /><path d="M 82.576782715395 88.27688183743585 l -49.342520194253524 -33.199849673404096 a80.47196244834154,80.47196244834154 0 0,0 0.7810005640754624,-1.1395031634707287 l 48.76532989336275 34.04198757194486" fill="#46fff4" stroke="none" /><path d="M 82.78059297857968 87.97951657250589 l -43.7315813967631 -30.528040180708935 a74.33303337272966,74.33303337272966 0 0,0 0.739383254858615,-1.0400351434604385 l 43.20108304337451 31.274252550878895" fill="#39ff88" stroke="none" /><path d="M 82.98947788004972 87.6856937992154 l -41.9598670111596 -30.37570786340624 a72.8007149351937,72.8007149351937 0 0,0 0.741520280832955,-1.0060146740432971 l 41.43224471074283 31.091528846718404" fill="#36ff6b" stroke="none" /><path d="M 83.2033758604659 87.39550010848427 l -48.091712370685876 -36.0889175303014 a81.12672257202846,81.12672257202846 0 0,0 0.8454487056482932,-1.1067194949616594 l 47.465111687683276 36.909157938503945" fill="#47ffff" stroke="none" /><path d="M 83.64595745247003 86.82634096563983 l -41.35141750101385 -33.309774825558726 a74.0987836797848,74.0987836797848 0 0,0 0.8064529857411198,-0.9837415151829026 l 40.773517696034105 34.01471862244012" fill="#38ff84" stroke="none" /><path d="M 84.10781606972428 86.27271002978789 l -38.72090111857332 -33.446192159276436 a72.16596479486708,72.16596479486708 0 0,0 0.8178429133300993,-0.93055510601676 l 38.14104714128463 34.1059595431045" fill="#34ff5f" stroke="none" /><path d="M 84.58840730492382 85.73525988315684 l -41.91425028890626 -38.79520432398832 a78.11280290636313,78.11280290636313 0 0,0 0.9192915975626692,-0.9762558195450578 l 41.24210285760732 39.50900160347789" fill="#41ffcc" stroke="none" /><path d="M 84.83555147118756 85.47280134310135 l -40.89184087670092 -39.17345854901612 a77.62775384011724,77.62775384011724 0 0,0 0.930103212532856,-0.9543678336795418 l 40.21335086301726 39.86964907476339" fill="#40ffc4" stroke="none" /><path d="M 85.34317274990677 84.96080404539775 l -40.892518133888444 -41.95932603959443 a79.5899571686768,79.5899571686768 0 0,0 0.9866407476099449,-0.9451795174936836 l 40.1662049004132 42.655117687393684" fill="#44ffe6" stroke="none" /><path d="M 85.86807049272753 84.46653392183569 l -39.63443779734242 -43.565190070846654 a79.89664205555697,79.89664205555697 0 0,0 1.0224296171286267,-0.9142628682502952 l 38.880743153390405 44.23914846898035" fill="#44ffeb" stroke="none" /><path d="M 86.40962598614128 83.9905735841838 l -38.11727096616461 -44.9020493536274 a79.89923923162002,79.89923923162002 0 0,0 1.0532457190595301,-0.8786550388215436 l 37.340850912943175 45.549766576360824" fill="#44ffeb" stroke="none" /><path d="M 86.68645165197937 83.75963576809568 l -38.089636032101964 -46.46316267097722 a81.0803283816566,81.0803283816566 0 0,0 1.0839637967854197,-0.8731645049191973 l 37.2864214649613 47.11017546968982" fill="#47fffe" stroke="none" /><path d="M 87.25179093698888 83.31218511350988 l -37.1343058444906 -48.60999837766988 a82.17097851783342,82.17097851783342 0 0,0 1.1282740978045736,-0.8466779172551276 l 36.29437875777528 49.24029532218901" fill="#49eeff" stroke="none" /><path d="M 87.83215693770416 82.88440491214696 l -34.412532547655395 -48.405536627795875 a80.39123144512438,80.39123144512438 0 0,0 1.1316210781792722,-0.7899593986910158 l 33.57651637830236 48.98914084229202" fill="#45fff3" stroke="none" /><path d="M 88.4268655584334 82.4767994020092 l -33.032977446374176 -50.01613807083411 a80.93990045448362,80.93990045448362 0 0,0 1.165975371960351,-0.7557711491899018 l 32.1695164421568 50.57582306172792" fill="#47fffc" stroke="none" /><line stroke="#e1ed5e" stroke-width="0.3" x1="56.869717070023135" x2="54.33264160355391" y1="26.7553504044142" y2="22.446841604673864" /><path d="M 56.362301976729285 25.89364864446614 a86.0,86.0 0 0,1 42.16139366436587,-11.88097634709845" fill="none" id="id36" stroke="none" /><text fill="#e1ed5e" style="font-size:6.75px; font-family:Arial;" text-anchor="middle"><textPath startOffset="22.145653131862474" xlink:href="#id36">December</textPath></text><path d="M 89.34428304082924 81.90426304109057 l -31.703732206589514 -53.839868384679356 a83.48086157782026,83.48086157782026 0 0,0 1.2411120844808972,-0.7165563960695398 l 30.774827654248217 54.37617167802507" fill="#4cdaff" stroke="none" /><path d="M 89.97174638481275 81.54914285379989 l -29.564322111124138 -54.3950227854714 a82.91015785573686,82.91015785573686 0 0,0 1.256330453076053,-0.6689252031688062 l 28.626202842261524 54.89451845636278" fill="#4be3ff" stroke="none" /><path d="M 91.5904679813234 80.7573450057729 l -10.45115705013054 -23.914292609803805 a47.09827723651142,47.09827723651142 0 0,0 0.7436255595964811,-0.3174095326826572 l 10.039096415363629 24.09017679214587" fill="#ff0000" stroke="none" /><path d="M 92.25597844496254 80.48000691201159 l -23.199210364757022 -58.4771649650522 a83.91090671654779,83.91090671654779 0 0,0 1.3434844913057795,-0.5196886625710785 l 22.191953610957714 58.866793515761316" fill="#4dd3ff" stroke="none" /></svg>