<?xml version="1.0" encoding="utf-8" ?>
<svg baseProfile="full" height="200mm" version="1.1" viewBox="0,0,200,200" width="200mm" xmlns="http://www.w3.org/2000/svg" xmlns:ev="http://www.w3.org/2001/xml-events" xmlns:xlink="http://www.w3.org/1999/xlink"><defs /><rect fill="#1a1a1a" height="200" width="200" x="0" y="0" /><text alignment-baseline="middle" fill="#e1ed5e" style="dominant-baseline: central; font-size:9.0px; font-family:Arial;" text-anchor="middle" x="100.0" y="100.0">2019</text><line stroke="#e1ed5e" stroke-width="0.3" x1="100.0" x2="100.0" y1="15.0" y2="10.0" /><path d="M 100.0 14.0 a86.0,86.0 0 0,1 42.46469731375804,11.215312516191453" fill="none" id="id13" stroke="none" /><text fill="#e1ed5e" style="font-size:6.75px; font-family:Arial;" text-anchor="middle"><textPath startOffset="22.20632615414155" xlink:href="#id13">January</textPath></text><line stroke="#e1ed5e" stroke-width="0.3" x1="143.23703022742887" x2="145.7803849466894" y1="26.81831364943548" y2="22.513508569990506" /><path d="M 143.74570117128098 25.957352633546492 a86.0,86.0 0 0,1 28.547481713284135,27.462654790039103" fill="none" id="id14" stroke="none" /><text fill="#e1ed5e" style="font-size:6.75px; font-family:Arial;" text-anchor="middle"><textPath startOffset="19.985693538727396" xlink:href="#id14">February</textPath></text><line stroke="#e1ed5e" stroke-width="0.3" x1="172.23445277983987" x2="176.4835382374775" y1="55.19839476539836" y2="52.563006222186495" /><path d="M 173.08426987136738 54.67131705675599 a86.0,86.0 0 0,1 12.851231095245387,41.99856678651699" fill="none" id="id15" stroke="none" /><text fill="#e1ed5e" style="font-size:6.75px; font-family:Arial;" text-anchor="middle"><textPath startOffset="22.20632615414155" xlink:href="#id15">March</textPath></text><line stroke="#e1ed5e" stroke-width="0.3" x1="184.98032266829074" x2="189.97916517819016" y1="98.17113171792111" y2="98.06355123074" /><path d="M 185.9800911702706 98.14961562048488 a86.0,86.0 0 0,1 -9.607161424134198,41.387399972396054" fill="none" id="id16" stroke="none" /><text fill="#e1ed5e" style="font-size:6.75px; font-family:Arial;" text-anchor="middle"><textPath startOffset="21.466115282336823" xlink:href="#id16">April</textPath></text><line stroke="#e1ed5e" stroke-width="0.3" x1="174.80103733775053" x2="179.2010983576182" y1="140.37084112569926" y2="142.7455964860345" /><path d="M 175.68104954172406 140.8457921977663 a86.0,86.0 0 0,1 -30.038265399797805,32.042727171017184" fill="none" id="id17" stroke="none" /><text fill="#e1ed5e" style="font-size:6.75px; font-family:Arial;" text-anchor="middle"><textPath startOffset="22.206326154141568" xlink:href="#id17">May</textPath></text><line stroke="#e1ed5e" stroke-width="0.3" x1="143.8653032363475" x2="146.44561519142675" y1="172.8068346515853" y2="177.08958963109032" /><path d="M 144.38136562736335 173.6633856474863 a86.0,86.0 0 0,1 -40.68145358897372,12.25698825130547" fill="none" id="id18" stroke="none" /><text fill="#e1ed5e" style="font-size:6.75px; font-family:Arial;" text-anchor="middle"><textPath startOffset="21.466115282336833" xlink:href="#id18">June</textPath></text><line stroke="#e1ed5e" stroke-width="0.3" x1="102.19456741930631" x2="102.32365962044197" y1="184.97166512339345" y2="189.96999836594603" /><path d="M 102.22038585953345 185.97133177190398 a86.0,86.0 0 0,1 -42.740103519485714,-10.115201625700543" fill="none" id="id19" stroke="none" /><text fill="#e1ed5e" style="font-size:6.75px; font-family:Arial;" text-anchor="middle"><textPath startOffset="22.20632615414155" xlink:href="#id19">July</textPath></text><line stroke="#e1ed5e" stroke-width="0.3" x1="58.666819895761336" x2="56.23545636021788" y1="174.27360380694188" y2="178.64263932499728" /><path d="M 58.180547188652646 175.14741091055294 a86.0,86.0 0 0,1 -31.652253787137756,-30.449443065178592" fill="none" id="id20" stroke="none" /><text fill="#e1ed5e" style="font-size:6.75px; font-family:Arial;" text-anchor="middle"><textPath startOffset="22.20632615414155" xlink:href="#id20">August</textPath></text><path d="M 89.7882731507175 118.34994917583269 l -4.086208795359501 7.342707538437128 a29.4031218195558,29.4031218195558 0 0,0 -0.4401384571592058,-0.249922102883117 l 4.211996019439915 -7.271282269759378" fill="#ff3d05" stroke="none" /><path d="M 88.24862548938628 117.40417183066458 l -4.26941428451058 6.323142859314371 a28.62955004912356,28.62955004912356 0 0,0 -0.4060530656417069,-0.2792870011378944 l 4.377624234775177 -6.248715068811375" fill="#ff3204" stroke="none" /><path d="M 82.6465618267979 111.8261652097733 l -25.881317647414967 17.637815359126183 a52.31988400056777,52.31988400056777 0 0,0 -0.5007682956849968,-0.7485806569144806 l 26.181089048510692 -17.18969778800588" fill="#92ff23" stroke="none" /><path d="M 82.44556493220864 111.52570212397912 l -12.027370562807517 7.896801572155387 a35.38808943970966,35.38808943970966 0 0,0 -0.3299436098415848,-0.5120798095607458 l 12.16151903602615 -7.688600162673193" fill="#ff940d" stroke="none" /><line stroke="#e1ed5e" stroke-width="0.3" x1="26.63291911575756" x2="22.317208475507996" y1="142.92168965132927" y2="145.44649492493687" /><path d="M 25.769776987707644 143.4266507060508 a86.0,86.0 0 0,1 -11.730757126820373,-40.83630448921669" fill="none" id="id21" stroke="none" /><text fill="#e1ed5e" style="font-size:6.75px; font-family:Arial;" text-anchor="middle"><textPath startOffset="21.46611528233685" xlink:href="#id21">September</textPath></text><line stroke="#e1ed5e" stroke-width="0.3" x1="15.007084014347285" x2="10.007500721073583" y1="101.09737516637583" y2="101.16192664675087" /><path d="M 14.007167355692545 101.11028546245083 a86.0,86.0 0 0,1 10.666146001902534,-42.60595125391555" fill="none" id="id22" stroke="none" /><text fill="#e1ed5e" style="font-size:6.75px; font-family:Arial;" text-anchor="middle"><textPath startOffset="22.20632615414155" xlink:href="#id22">October</textPath></text><path d="M 79.12142395522702 97.74499172005258 l -11.932297402393818 -1.2887578819308203 a33.00169230472991,33.00169230472991 0 0,0 0.06586139403692412,-0.5642602032328332 l 11.908345655353306 1.4939618234885153" fill="#ff720a" stroke="none" /><path d="M 79.16333360222342 97.38593545837743 l -4.314142880679531 -0.5412309107699282 a25.347960406177904,25.347960406177904 0 0,0 0.05803958819298325,-0.4324623466478471 l 4.304187293428714 0.6154115994824347" fill="#ff0000" stroke="none" /><path d="M 79.26566170972629 96.67025291283419 l -8.81100424638533 -1.414967543872356 a29.923896513296896,29.923896513296896 0 0,0 0.08604992411902325,-0.5078715231574027 l 8.785342460746083 1.5664248553455866" fill="#ff4506" stroke="none" /><path d="M 79.32604984820605 96.31383870115002 l -62.021850455381816 -11.05848389654995 a84.0,84.0 0 0,0 0.2660571043605535,-1.4212876901497093 l 61.8223076271114 12.124449664162231" fill="#4dd2ff" stroke="none" /><path d="M 79.3925641242962 95.95851677861259 l -5.913276195449372 -1.1596982114361194 a27.025921946497178,27.025921946497178 0 0,0 0.09345911810957264,-0.4557398512324959 l 5.892437781424805 1.2613137188320178" fill="#ff1a02" stroke="none" /><path d="M 79.46518482838121 95.60439243477599 l -8.424260235374613 -1.8032663899116705 a29.615098965554544,29.615098965554544 0 0,0 0.11099402467044253,-0.4975644488564792 l 8.391971823702132 1.948009008318109" fill="#ff4106" stroke="none" /><path d="M 79.54389044137918 95.25157060432595 l -13.693541994121885 -3.1786502291381584 a35.057628164949435,35.057628164949435 0 0,0 0.14151128424001688,-0.5866556323884149 l 13.636797909621052 3.41389109318597" fill="#ff8f0d" stroke="none" /><path d="M 79.91906864156998 93.8553929516997 l -6.431611062119963 -1.9680223969112902 a27.725974502563055,27.725974502563055 0 0,0 0.14357369925411115,-0.45516786168686135 l 6.396781879097648 2.0784404250245663" fill="#ff2403" stroke="none" /><path d="M 80.2630227832202 92.82701384747504 l -8.008905311828627 -2.91066693078968 a29.521416917146432,29.521416917146432 0 0,0 0.1776843637741779,-0.4761057558070516 l 7.957616359552821 3.048095823626073" fill="#ff3f05" stroke="none" /><path d="M 80.38941819471856 92.48833698450439 l -8.172821806261645 -3.1305284006310306 a29.75186976274575,29.75186976274575 0 0,0 0.1873042421768985,-0.4766688660898788 l 8.117724014203056 3.2707462716166726" fill="#ff4306" stroke="none" /><path d="M 80.52162464483688 92.15188598940014 l -7.673185424364807 -3.091635361617853 a29.27260441251064,29.27260441251064 0 0,0 0.19233259891837162,-0.46574864396573395 l 7.618831138560236 3.223258576036898" fill="#ff3c05" stroke="none" /><path d="M 80.65960295795068 91.81776055985345 l -10.771350751639854 -4.556978367719228 a32.69564230210182,32.69564230210182 0 0,0 0.2237460736415558,-0.5164367866617973 l 10.691313968155619 4.741714298967625" fill="#ff6e0a" stroke="none" /><path d="M 80.803312248108 91.48605970444005 l -4.020929348825113 -1.7833260013924885 a25.398650299294736,25.398650299294736 0 0,0 0.18069045271298614,-0.39812746112593217 l 3.9896365791487756 1.8522754713604916" fill="#ff0100" stroke="none" /><path d="M 81.10775173730289 90.83032412892265 l -15.82371724965248 -7.680311852633572 a38.589122142695274,38.589122142695274 0 0,0 0.29518838481627335,-0.5950817711502034 l 15.689168851882794 7.951553212282737" fill="#ffc011" stroke="none" /><path d="M 81.26839172434947 90.50648371742162 l -13.979620030839769 -7.085123094291655 a36.67254751046943,36.67254751046943 0 0,0 0.290220545629884,-0.5606137188125958 l 13.855590052049772 7.324709535364586" fill="#ffa60f" stroke="none" /><line stroke="#e1ed5e" stroke-width="0.3" x1="26.266209847984243" x2="21.928928074336255" y1="57.711370442889674" y2="55.22380399835377" /><path d="M 25.398753493254645 57.213857153982495 a86.0,86.0 0 0,1 29.58750427330803,-30.492523968695096" fill="none" id="id23" stroke="none" /><text fill="#e1ed5e" style="font-size:6.75px; font-family:Arial;" text-anchor="middle"><textPath startOffset="21.46611528233685" xlink:href="#id23">November</textPath></text><line stroke="#e1ed5e" stroke-width="0.3" x1="56.762969772571076" x2="54.21961505331055" y1="26.818313649435495" y2="22.513508569990535" /><path d="M 56.25429882871897 25.957352633546506 a86.0,86.0 0 0,1 42.265352541879196,-11.944610805530505" fill="none" id="id24" stroke="none" /><text fill="#e1ed5e" style="font-size:6.75px; font-family:Arial;" text-anchor="middle"><textPath startOffset="22.20632615414155" xlink:href="#id24">December</textPath></text></svg>